<?xml version="1.0" encoding="utf-8"?>
<!-- Generator: Adobe Illustrator 16.0.4, SVG Export Plug-In . SVG Version: 6.00 Build 0)  -->
<!DOCTYPE svg PUBLIC "-//W3C//DTD SVG 1.1//EN" "http://www.w3.org/Graphics/SVG/1.1/DTD/svg11.dtd">
<svg version="1.1" id="Layer_1" xmlns="http://www.w3.org/2000/svg" xmlns:xlink="http://www.w3.org/1999/xlink" x="0px" y="0px"
	 width="48px" height="48px" viewBox="0 0 48 48" enable-background="new 0 0 48 48" xml:space="preserve">
<path fill="#999999" d="M4.5,6.5v36.998h37V6.5H4.5z M40.5,24.5H29.73c0.088-0.036,0.178-0.065,0.265-0.104
	c2.739-1.227,4.188-3.418,4.188-6.337c0-2.537-1.83-4.378-4.351-4.378c-2.423,0-4.974,1.668-6.335,5.224V7.498H40.5V24.5L40.5,24.5z
	 M21.058,24.5c-3.08-0.165-8.241-1.219-8.241-6.441c0-1.989,1.377-3.378,3.349-3.378c2.978,0,6.177,3.078,6.329,9.819H21.058z
	 M23.506,24.5c0.072-3.144,0.814-5.729,2.161-7.497c1.124-1.476,2.644-2.322,4.168-2.322c1.972,0,3.349,1.389,3.349,3.378
	c0,2.531-1.209,4.355-3.597,5.424c-1.597,0.715-3.38,0.949-4.685,1.018L23.506,24.5L23.506,24.5z M22.5,7.498v11.407
	c-1.363-3.556-3.912-5.224-6.335-5.224c-2.52,0-4.349,1.841-4.349,4.378c0,3.604,2.12,5.471,4.492,6.441H5.5V7.498H22.5z M5.5,25.5
	c0,0,16.74,0.002,16.826,0c-0.575,1.756-2.656,6.755-8.335,9.236l0.4,0.916c4.583-2.002,6.953-5.459,8.109-7.87V42.5h-17V25.5z
	 M23.5,42.5V27.782c1.156,2.411,3.525,5.868,8.107,7.87l0.399-0.916c-5.661-2.476-7.754-7.481-8.333-9.238H40.5V42.5H23.5z"/>
</svg>
